<?xml version="1.0" encoding="UTF-8"?>
<svg width="100" height="100" version="1.1" viewBox="0 0 26.458 26.458" xmlns="http://www.w3.org/2000/svg">
 <title>Syrusdark Logo</title>
 <g stroke-width="0">
  <rect y="-5.5511e-17" width="26.458" height="26.458" fill="#fff"/>
  <path d="m16.198 6.695c-0.71617 0.041638-2.1485 0.12492-3.4477 0.508s-2.465 1.0659-3.0563 2.0486c-0.59128 0.98271-0.60793 2.2652-0.033287 3.2728 0.57465 1.0077 1.7405 1.7405 2.9314 2.1985 1.1909 0.45802 2.4067 0.64122 3.1812 1.1659 0.77447 0.52468 1.1076 1.3907 1.0826 2.1985-0.025 0.80778-0.40807 1.5573-0.96603 2.3234-0.55796 0.76615-1.2908 1.5489-2.1236 1.8654s-1.7655 0.16656-2.465-0.17487c-0.69954-0.34143-1.1659-0.87439-1.5656-1.499-0.39974-0.62458-0.73284-1.3408-0.68289-1.9903s0.48299-1.2325 1.0743-1.499c0.5913-0.26649 1.3408-0.21652 1.1492-0.52465-0.19155-0.30812-1.3241-0.97433-1.9987-1.6739-0.67456-0.69953-0.89108-1.4324-1.2159-2.0403s-0.75781-1.0909-1.0326-0.75781c-0.27484 0.33312-0.39142 1.4823-0.69955 2.5733-0.30813 1.0909-0.80779 2.1236-0.71615 2.6565 0.091634 0.53297 0.7745 0.56628 1.0993 1.0493s0.29145 1.4157 0.099914 2.032c-0.19154 0.61624-0.5413 0.91603-0.39138 1.4657 0.14992 0.54966 0.79947 1.3491 2.1069 1.7821 1.3075 0.43302 3.2728 0.49964 4.8551 0.1582s2.7814-1.0909 3.5309-1.932c0.74949-0.8411 1.0493-1.7738 1.3158-2.6316 0.26649-0.85776 0.49966-1.6406 0.18322-2.465-0.31644-0.82445-1.1825-1.6905-1.9487-2.4733-0.76616-0.78282-1.4324-1.4823-1.5323-2.1985-0.09995-0.71621 0.36639-1.449 0.94935-2.057 0.58296-0.60794 1.2825-1.0909 1.7155-1.5156 0.43304-0.42471 0.59959-0.79112 1.0743-1.1909s1.2575-0.83278 1.7322-1.449 0.64123-1.4157 0.18321-2.0736c-0.45801-0.6579-1.5406-1.1742-2.3567-1.3574s-1.3658-0.033326-1.3741 0.19154c-0.0083 0.22487 0.52465 0.52466 0.47467 0.73284-0.04998 0.20818-0.68288 0.32477-0.84943 0.84945-0.16656 0.52468 0.13323 1.4574 0.28313 1.9237 0.14989 0.46633 0.14989 0.46634-0.56628 0.50797z" fill="#f55"/>
 </g>
</svg>
